# xmcd CD database file
# Copyright (C) 2007 Ti Kan
# 
# Track frame offsets:
#     150
#     18967
#     31340
# 
# Disc length: 567 seconds
# 
# Revision: 1
# Processed by: cddbd v1.5.2PL0 Copyright (c) Steve Scherf et al.
# Submitted via: DiscPlay 4.0.4
# 
DISCID=17023503
DTITLE=Allison Block - Presenting Allison Block
DYEAR=1900
DGENRE=
TTITLE0=Damn You
TTITLE1=The One
TTITLE2=The Morning After
EXTD=Submitted by ecto@cox.net
EXTT0=
EXTT1=
EXTT2=
PLAYORDER=
